<svg version="1.1" xmlns="http://www.w3.org/2000/svg" viewBox="-20.806713992569208 -10.943866533977541 38.415505870890776 21.606306402596783" fill="none" stroke="black" stroke-width="0.6%" vector-effect="non-scaling-stroke">
    <path d="M -16.85837 5.23849 L -8.63592 7.47818" />
    <path d="M -16.85837 -6.40438 L -4.89906 -3.14681 L -8.63592 -2.34238 L -7.30711 -1.98043 L -3.57025 -2.78486 L -3.57025 8.85801 L -0.91262 9.58191 L 15.52956 6.04242 L 15.52956 -5.60044 L -0.91262 -2.06095" />
    <path d="M -16.85837 5.23849 L -16.85837 -6.40438" />
    <path d="M -8.63592 9.30049 L -7.30711 9.66244 L -3.57025 8.85801" />
    <path d="M 15.52956 4.74642 L 16.60879 4.51409 L 16.60879 -7.12877 L 15.27998 -7.49073 L 11.54312 -6.6863 L -0.41619 -9.94387 L -16.85837 -6.40438" />
    <path d="M -8.63592 9.30049 L -8.63592 -2.34238" />
    <path d="M -3.57025 -2.78486 L -0.91262 -2.06095" />
    <path d="M 15.52956 -5.60044 L 12.87193 -6.32435 L 16.60879 -7.12877" />
    <path d="M -7.30711 9.66244 L -7.30711 -1.98043" />
    <path d="M -0.91262 9.58191 L -0.91262 -2.06095" />
    <path d="M -19.80671 -0.59803 L -16.85837 0.20507" />
    <path d="M -16.85837 -4.04035 L -19.05934 -4.63987 L -19.80671 -4.47898 L -16.85837 -3.67589" />
    <path d="M -19.80671 -0.59803 L -19.80671 -4.47898" />
    <path d="M 6.54086 4.42399 A 2.25 1.63154 105.237 0 1 8.81378 1.89109 L 6.82056 1.34816 A 2.25 1.63154 285.237 0 0 4.54765 3.88106 A 2.25 1.63154 285.237 0 0 5.6379 5.68997" />
    <path d="M 8.81378 1.89109 A 2.25 1.63154 105.237 0 1 7.63112 6.2329 L 5.6379 5.68997" />
    <path d="M 7.63112 6.2329 A 2.25 1.63154 105.237 0 1 6.54086 4.42399" />
</svg>