<svg version="1.1" xmlns="http://www.w3.org/2000/svg" viewBox="-20.807271163350876 -10.953379472143283 38.415598449087284 21.624780804666273" fill="none" stroke="black" stroke-width="0.6%" vector-effect="non-scaling-stroke">
    <path d="M -19.80727 -0.60174 L -16.85858 0.20334" />
    <path d="M -19.80727 -4.48208 L -16.85858 -3.677" />
    <path d="M -19.80727 -0.60174 L -19.80727 -4.48208" />
    <path d="M -0.41765 -9.95338 L -16.85858 -6.40458 L -4.89811 -3.13901 L -8.63468 -2.33247 L -7.30574 -1.96963 L -3.56917 -2.77617 L -3.56917 8.86486 L -0.91129 9.59054 L -0.91129 3.77002 A 6 4.34975 285.27127 0 0 1.99226 8.59031" />
    <path d="M -16.85858 5.23645 L -16.85858 -6.40458" />
    <path d="M -19.05996 -4.64339 L -19.80727 -4.48208" />
    <path d="M -16.85858 -4.04235 L -19.05996 -4.64339" />
    <path d="M 11.54281 -6.68781 L -0.41765 -9.95338" />
    <path d="M -8.63468 9.30856 L -7.30574 9.6714 L -3.56917 8.86486" />
    <path d="M -0.91129 9.59054 L 2.75624 8.7989" />
    <path d="M 9.05444 7.43942 L 15.52963 6.04174 L 15.52963 -5.59929 L 12.87175 -6.32497 L 16.60833 -7.13151 L 15.27939 -7.49435 L 11.54281 -6.68781" />
    <path d="M 15.52963 4.74235 L 16.60833 4.50951 L 16.60833 -7.13151" />
    <path d="M -16.85858 5.23645 L -8.63468 7.48182" />
    <path d="M -3.56917 -2.77617 L -0.91129 -2.05049 L 3.5726 -3.01834 A 6 4.34975 285.27127 0 0 -0.91129 3.77002 L -0.91129 -2.05049" />
    <path d="M 3.5726 -3.01834 L 15.52963 -5.59929" />
    <path d="M -8.63468 9.30856 L -8.63468 -2.33247" />
    <path d="M -7.30574 9.6714 L -7.30574 -1.96963" />
    <path d="M 5.15294 -2.98597 A 6 4.34975 285.27127 0 0 3.5726 -3.01834" />
    <path d="M 10.36946 4.87311 A 6 4.34975 105.27127 0 1 4.65015 9.31599 L 1.99226 8.59031" />
    <path d="M 4.65015 9.31599 A 6 4.34975 105.27127 1 1 7.81082 -2.26029 L 5.15294 -2.98597" />
    <path d="M 7.81082 -2.26029 A 6 4.34975 105.27127 0 1 10.36946 0.39579 A 2.5 1.8124 105.27127 0 1 11.7465 0.06762 L 10.01851 -0.40417" />
    <path d="M 11.7465 0.06762 A 2.5 1.8124 105.27127 0 1 10.42955 4.89107 L 10.36903 4.87454" />
    <path d="M 10.42955 4.89107 A 2.5 1.8124 105.27127 0 1 10.36946 4.87311" />
    <path d="M 4.54902 3.8908 A 2.25 1.63116 285.27127 0 0 5.63786 5.6984" />
    <path d="M 6.82311 1.3573 A 2.25 1.63116 285.27127 0 0 4.54902 3.8908" />
    <path d="M 6.54244 4.43506 A 2.25 1.63116 105.27127 0 1 8.81652 1.90156 L 6.82311 1.3573" />
    <path d="M 8.81652 1.90156 A 2.25 1.63116 105.27127 1 1 7.63127 6.24267 L 5.63786 5.6984" />
    <path d="M 7.63127 6.24267 A 2.25 1.63116 105.27127 0 1 6.54244 4.43506" />
</svg>