<svg version="1.1" xmlns="http://www.w3.org/2000/svg" viewBox="-20.806713992569208 -10.943866533977541 38.415505870890776 21.606306402596783" fill="none" stroke="black" stroke-width="0.6%" vector-effect="non-scaling-stroke">
    <path d="M -16.85837 5.23849 L -8.63592 7.47818" />
    <path d="M -16.85837 -6.40438 L -4.89906 -3.14681 L -8.63592 -2.34238 L -7.30711 -1.98043 L -3.57025 -2.78486 L -3.57025 8.85801 L -0.91262 9.58191 L 2.75716 8.79192" />
    <path d="M -16.85837 5.23849 L -16.85837 -6.40438" />
    <path d="M -8.63592 9.30049 L -7.30711 9.66244 L -3.57025 8.85801" />
    <path d="M 9.04999 7.43727 L 15.52956 6.04242 L 15.52956 -5.60044 L 3.57161 -3.02627 A 6 4.35077 285.237 0 0 -0.91262 3.76048 L -0.91262 -2.06095" />
    <path d="M 15.52956 4.74642 L 16.60879 4.51409 L 16.60879 -7.12877 L 15.27998 -7.49073 L 11.54312 -6.6863 L -0.41619 -9.94387 L -16.85837 -6.40438" />
    <path d="M -8.63592 9.30049 L -8.63592 -2.34238" />
    <path d="M -3.57025 -2.78486 L -0.91262 -2.06095" />
    <path d="M 3.57161 -3.02627 L -0.91262 -2.06095" />
    <path d="M 15.52956 -5.60044 L 12.87193 -6.32435 L 16.60879 -7.12877" />
    <path d="M -7.30711 9.66244 L -7.30711 -1.98043" />
    <path d="M -0.91262 9.58191 L -0.91262 3.76048 A 6 4.35077 285.237 0 0 1.99473 8.58425" />
    <path d="M 5.14848 -2.99392 A 6 4.35077 285.237 0 0 3.57161 -3.02627" />
    <path d="M -19.80671 -0.59803 L -16.85837 0.20507" />
    <path d="M -16.85837 -4.04035 L -19.05934 -4.63987 L -19.80671 -4.47898 L -16.85837 -3.67589" />
    <path d="M -19.80671 -0.59803 L -19.80671 -4.47898" />
    <path d="M 10.36852 4.86702 A 6 4.35077 105.237 0 1 4.65236 9.30815 L 1.99473 8.58425" />
    <path d="M 4.65236 9.30815 A 6 4.35077 105.237 0 1 7.80611 -2.27001 L 5.14848 -2.99392" />
    <path d="M 7.80611 -2.27001 A 6 4.35077 105.237 0 1 10.36852 0.389 A 2.5 1.81282 105.237 0 1 11.74418 0.06119 L 10.01895 -0.40874" />
    <path d="M 11.74418 0.06119 A 2.5 1.81282 105.237 0 1 10.43012 4.88543 L 10.36807 4.86853" />
    <path d="M 10.43012 4.88543 A 2.5 1.81282 105.237 0 1 10.36852 4.86702" />
    <path d="M 4.54765 3.88106 A 2.25 1.63154 285.237 0 0 5.6379 5.68997" />
    <path d="M 6.82056 1.34816 A 2.25 1.63154 285.237 0 0 4.54765 3.88106" />
    <path d="M 6.54086 4.42399 A 2.25 1.63154 105.237 0 1 8.81378 1.89109 L 6.82056 1.34816" />
    <path d="M 8.81378 1.89109 A 2.25 1.63154 105.237 0 1 7.63112 6.2329 L 5.6379 5.68997" />
    <path d="M 7.63112 6.2329 A 2.25 1.63154 105.237 0 1 6.54086 4.42399" />
</svg>