<svg version="1.1" xmlns="http://www.w3.org/2000/svg" viewBox="-19.46678517992753 -10.67111403718726 38.99145996737289 22.513920622288108" fill="none" stroke="black" stroke-width="0.6%" vector-effect="non-scaling-stroke">
    <path d="M -18.46678 5.4555 L -18.46678 1.60152 L -14.02086 2.68022 L -13.6851 2.58103" />
    <path d="M -14.02086 6.5342 L -14.02086 2.68022" />
    <path d="M -18.46678 5.4555 L -14.02086 6.5342 L -13.6851 6.43501 L -4.44592 8.67669" />
    <path d="M -17.79526 1.40314 L -18.46678 1.60152" />
    <path d="M -13.6851 6.43501 L -13.6851 2.58103" />
    <path d="M -4.44592 10.48324 L -2.96395 10.84281 L 0.39365 9.8509 L 3.3576 10.57003 L 18.13102 6.20563 L 18.13102 -5.35631 L 15.16708 -6.07544 L 18.52467 -7.06735 L 17.0427 -7.42692 L 13.6851 -6.43501 L 0.34734 -9.67111 L -14.42609 -5.30671 L -1.08832 -2.07061 L -4.44592 -1.0787 L -2.96395 -0.71913 L 0.39365 -1.71104 L 0.39365 9.8509" />
    <path d="M 18.13102 4.61088 L 18.52467 4.49459 L 18.52467 -7.06735" />
    <path d="M -14.42609 2.22059 L -17.79526 1.40314" />
    <path d="M -14.42609 2.40125 L -13.6851 2.58103" />
    <path d="M -14.42609 2.40125 L -14.42609 -5.30671" />
    <path d="M -4.44592 10.48324 L -4.44592 -1.0787" />
    <path d="M 0.39365 -1.71104 L 3.3576 -0.99191 L 18.13102 -5.35631" />
    <path d="M 3.3576 10.57003 L 3.3576 -0.99191" />
    <path d="M -2.96395 10.84281 L -2.96395 -0.71913" />
</svg>